:SAMPLES-PER-SECOND 30
:FULLY-SPECIFIED
:DEGREES
779
root  -61.1615 40.4675 -1.08401 -15.21 -82.4015 21.1188
RightUpLeg  -18.8108 -6.17669 -2.06609
RightLeg  8.23684 11.3484 1.73222
RightFoot  5.31435 0.308485 -1.85894
RightToes  4.6566e-010 0 -3.6325e-017
Spine  18.9251 -3.06276 4.91729
Spine1  5.83896 -1.82142 -3.95602
HEad  -19.7877 2.15837 -2.65779
LeftShoulder1  2.41425 -6.99265 -16.2756
LeftArm  -25.0935 -61.3845 -27.7439
LeftForeArm  -17.5961 -19.364 -4.74871
LeftHand  -0.0151164 4.79372 -1.35368
RightShoulder  0.959996 1.90119 10.5619
RightArm  -16.2665 69.1992 30.5607
RightForeArm  -36.8841 7.61359 3.86083
RightHand  -0.216508 9.8273 -2.05046
LeftUpLeg  -16.8102 0.357956 -0.472791
LeftLeg  5.0918 -14.0183 0.0985681
LeftFoot  4.7853 0.120079 -1.05418
LeftToes  -4.59298e-010 2.08438e-011 -1.27151e-011
780
root  -61.2223 40.5173 -0.903191 -16.0719 -82.8005 21.8766
RightUpLeg  -18.2288 -6.14917 -2.1955
RightLeg  7.43223 11.7433 1.50029
RightFoot  5.64105 0.258808 -1.47285
RightToes  4.6566e-010 0 -3.6325e-017
Spine  18.7846 -2.99545 5.06524
Spine1  5.62599 -1.62774 -4.28281
HEad  -20.2207 1.83904 -2.67941
LeftShoulder1  2.44773 -7.05729 -16.4677
LeftArm  -24.5988 -61.824 -27.6227
LeftForeArm  -17.6474 -18.8503 -4.69112
LeftHand  -0.0221996 5.18023 -1.29077
RightShoulder  0.971971 2.01376 10.3988
RightArm  -16.315 69.2448 30.4366
RightForeArm  -36.686 6.78246 3.81448
RightHand  -0.191709 9.17734 -1.91538
LeftUpLeg  -16.2292 0.385358 -0.748612
LeftLeg  4.48788 -13.6742 0.435912
LeftFoot  5.10768 0.0692401 -0.691644
LeftToes  -4.59298e-010 2.08438e-011 -1.27151e-011
781
root  -61.2528 40.5164 -0.715883 -16.9041 -83.2349 22.5787
RightUpLeg  -18.0807 -6.08754 -2.27736
RightLeg  7.4683 12.098 1.37024
RightFoot  5.56761 0.217099 -1.20361
RightToes  4.6566e-010 0 -3.6325e-017
Spine  18.5996 -3.02764 5.30203
Spine1  5.4949 -1.55387 -4.64942
HEad  -20.9057 2.27724 -3.31717
LeftShoulder1  2.44215 -6.94729 -16.672
LeftArm  -24.1636 -62.1222 -27.3518
LeftForeArm  -17.5893 -18.6354 -4.72609
LeftHand  -0.025844 5.32991 -1.31567
RightShoulder  0.978851 2.06242 10.3674
RightArm  -16.2698 69.6226 30.4711
RightForeArm  -36.2846 5.927 3.80099
RightHand  -0.130248 8.51263 -1.47281
LeftUpLeg  -16.3275 0.198173 -0.839176
LeftLeg  5.24084 -12.9893 0.234248
LeftFoot  4.8146 -0.00738548 -0.15509
LeftToes  -4.59298e-010 2.08438e-011 -1.27151e-011
782
root  -61.2819 40.5355 -0.519085 -16.9335 -83.4567 22.1048
RightUpLeg  -17.4131 -6.13835 -2.40482
RightLeg  7.32739 12.4237 1.25369
RightFoot  5.55135 0.185741 -0.993913
RightToes  4.6566e-010 0 -3.6325e-017
Spine  18.3626 -3.28186 5.46483
Spine1  5.94568 -1.66627 -5.12129
HEad  -21.5678 2.39423 -2.82695
LeftShoulder1  2.34383 -6.69429 -16.2569
LeftArm  -24.2848 -62.3751 -27.2609
LeftForeArm  -17.3815 -18.2521 -4.63193
LeftHand  -0.0205086 4.91526 -1.32417
RightShoulder  0.972012 1.85938 10.9661
RightArm  -15.5181 70.388 30.9355
RightForeArm  -36.114 5.19591 3.99763
RightHand  -0.161855 7.94203 -1.77702
LeftUpLeg  -15.8101 0.125347 -0.984393
LeftLeg  5.50136 -12.7502 0.21742
LeftFoot  4.65773 -0.0516903 0.167743
LeftToes  -4.59298e-010 2.08438e-011 -1.27151e-011
783
root  -61.3208 40.5154 -0.309835 -18.1363 -83.7928 23.1689
RightUpLeg  -17.4175 -6.3436 -2.63886
RightLeg  7.74422 12.9379 1.3825
RightFoot  5.26353 0.151055 -0.78746
RightToes  4.6566e-010 0 -3.6325e-017
Spine  17.8338 -3.1736 5.43992
Spine1  5.96846 -1.60694 -5.05497
HEad  -21.7306 2.40984 -3.08078
LeftShoulder1  2.37396 -6.75 -16.44
LeftArm  -23.4213 -62.0998 -28.0253
LeftForeArm  -17.442 -18.2726 -4.69157
LeftHand  -0.0247622 5.11036 -1.29238
RightShoulder  0.963066 1.79981 11.0069
RightArm  -14.5494 69.8162 31.9623
RightForeArm  -36.6794 5.23474 4.07319
RightHand  -0.226042 8.06769 -2.32216
LeftUpLeg  -15.9946 -0.0638538 -1.09993
LeftLeg  6.47976 -12.1018 -0.185317
LeftFoot  4.18891 -0.126311 0.741041
LeftToes  -4.59298e-010 2.08438e-011 -1.27151e-011
784
root  -61.3715 40.5231 -0.0993577 -18.6823 -84.1683 23.0302
RightUpLeg  -16.4898 -6.3421 -2.74407
RightLeg  7.52116 13.3209 1.20447
RightFoot  5.09216 0.100185 -0.453168
RightToes  4.6566e-010 0 -3.6325e-017
Spine  17.4816 -3.1421 5.51737
Spine1  6.27271 -1.53346 -5.1099
HEad  -22.0916 2.32057 -3.18796
LeftShoulder1  2.39267 -6.7172 -16.7201
LeftArm  -22.4999 -61.7891 -29.1441
LeftForeArm  -17.1288 -18.078 -4.67379
LeftHand  -0.0342655 5.63688 -1.12635
RightShoulder  0.982124 1.89796 11.0319
RightArm  -13.6627 68.2338 33.8288
RightForeArm  -36.4217 6.37069 3.84418
RightHand  -0.181884 8.09745 -1.94006
LeftUpLeg  -15.3118 0.0866386 -1.17677
LeftLeg  6.91838 -11.8792 -0.38104
LeftFoot  3.80834 -0.184732 1.21414
LeftToes  -4.59298e-010 2.08438e-011 -1.27151e-011
785
root  -61.4253 40.5557 0.0895576 -20.4651 -84.5643 24.3467
RightUpLeg  -15.6073 -6.1877 -2.88676
RightLeg  6.88603 13.6469 0.791209
RightFoot  5.05625 0.0192056 0.108672
RightToes  4.6566e-010 0 -3.6325e-017
Spine  16.8424 -3.03444 5.31824
Spine1  6.5969 -1.39069 -5.23836
HEad  -22.3167 2.04843 -2.91257
LeftShoulder1  2.37703 -6.60501 -16.8332
LeftArm  -22.444 -60.9873 -31.1202
LeftForeArm  -14.6282 -18.1072 -4.39606
LeftHand  -0.0284707 5.08965 -0.982357
RightShoulder  0.971072 1.79529 11.1913
RightArm  -12.3211 65.6415 36.8545
RightForeArm  -36.5199 8.82454 3.56489
RightHand  -0.28482 7.99922 -2.83777
LeftUpLeg  -14.4841 0.131303 -1.45577
LeftLeg  6.60249 -11.5289 -0.122824
LeftFoot  3.76103 -0.198672 1.32635
LeftToes  -4.59298e-010 2.08438e-011 -1.27151e-011
786
root  -61.5246 40.5795 0.292381 -22.5355 -84.9634 25.7211
RightUpLeg  -14.4845 -6.35855 -3.136
RightLeg  6.46603 14.1735 0.663005
RightFoot  4.60957 -0.0650281 0.688648
RightToes  4.6566e-010 0 -3.6325e-017
Spine  16.4028 -2.9506 4.3708
Spine1  6.44184 -1.63515 -4.37855
HEad  -21.5345 2.16135 -2.76308
LeftShoulder1  2.31938 -6.27426 -17.0617
LeftArm  -21.8561 -59.1354 -32.9795
LeftForeArm  -12.7458 -18.1111 -4.23065
LeftHand  -0.0203909 3.98324 -0.0651679
RightShoulder  0.978865 1.68505 11.7931
RightArm  -9.93095 62.4567 40.9227
RightForeArm  -36.6892 11.536 3.60215
RightHand  -0.519997 8.05829 -4.83994
LeftUpLeg  -13.5411 0.271482 -1.65944
LeftLeg  6.72009 -11.2622 -0.141926
LeftFoot  3.47315 -0.238267 1.67344
LeftToes  -4.59298e-010 2.08438e-011 -1.27151e-011
787
root  -61.6425 40.5832 0.487734 -21.4376 -85.1706 24.1153
RightUpLeg  -13.6664 -6.32237 -3.1934
RightLeg  6.39986 14.3304 0.481468
RightFoot  4.10157 -0.113128 1.04137
RightToes  4.6566e-010 0 -3.6325e-017
Spine  15.2118 -3.04814 4.50527
Spine1  6.85831 -1.68949 -4.58604
HEad  -20.7867 1.49802 -2.14978
LeftShoulder1  2.23824 -5.71046 -17.6685
LeftArm  -21.5262 -57.091 -35.3427
LeftForeArm  -9.10361 -18.9917 -4.18952
LeftHand  -0.0258752 4.76806 -0.141893
RightShoulder  0.932645 1.17021 13.0549
RightArm  -8.33535 58.1246 44.3953
RightForeArm  -35.7885 14.4947 3.79143
RightHand  -0.733947 8.55304 -6.48107
LeftUpLeg  -13.072 0.423175 -1.64282
LeftLeg  7.37412 -11.2206 -0.4471
LeftFoot  2.9437 -0.301903 2.26518
LeftToes  -4.59298e-010 2.08438e-011 -1.27151e-011
788
root  -61.7785 40.6054 0.689576 -23.8792 -85.4939 25.7952
RightUpLeg  -12.5653 -6.43438 -3.45991
RightLeg  6.2922 14.8303 0.312243
RightFoot  3.62578 -0.167648 1.46415
RightToes  4.6566e-010 0 -3.6325e-017
Spine  14.0798 -2.86073 3.90306
Spine1  7.44861 -1.67681 -4.09692
HEad  -20.0476 1.28229 -2.4023
LeftShoulder1  2.142 -5.13392 -18.243
LeftArm  -19.0266 -54.2925 -37.9123
LeftForeArm  -8.48025 -19.4998 -4.41335
LeftHand  -0.0322274 4.47929 1.14131
RightShoulder  0.856958 0.425367 15.0375
RightArm  -6.35455 53.069 46.4737
RightForeArm  -33.4553 17.6303 4.62346
RightHand  -0.800264 8.93114 -6.85074
LeftUpLeg  -11.9689 0.701683 -1.86898
LeftLeg  7.42668 -11.0201 -0.552165
LeftFoot  2.58896 -0.333251 2.60021
LeftToes  -4.59298e-010 2.08438e-011 -1.27151e-011
789
root  -61.9469 40.631 0.890106 -25.2933 -85.671 26.2119
RightUpLeg  -11.1596 -6.63457 -3.76642
RightLeg  6.25175 15.2576 0.226484
RightFoot  3.14064 -0.199262 1.73639
RightToes  4.6566e-010 0 -3.6325e-017
Spine  13.1948 -2.72559 2.66526
Spine1  7.69419 -2.03351 -2.60261
HEad  -18.7022 0.954926 -2.72227
LeftShoulder1  1.98947 -4.09675 -19.6865
LeftArm  -15.7817 -50.2706 -40.1949
LeftForeArm  -7.13449 -20.3941 -4.71637
LeftHand  -0.0413487 4.13968 1.91353
RightShoulder  0.820643 0.0459111 16.5922
RightArm  -2.85546 47.1874 48.3624
RightForeArm  -31.2813 19.4629 5.28958
RightHand  -0.872627 9.18416 -7.31682
LeftUpLeg  -10.6152 0.820636 -2.11261
LeftLeg  7.54966 -10.8948 -0.540792
LeftFoot  2.18878 -0.373372 3.03297
LeftToes  -4.59298e-010 2.08438e-011 -1.27151e-011
790
root  -62.1218 40.6589 1.10346 -26.403 -85.7083 26.5138
RightUpLeg  -9.93352 -6.8929 -4.18032
RightLeg  6.20574 15.638 0.174572
RightFoot  2.70183 -0.230994 2.02409
RightToes  4.6566e-010 0 -3.6325e-017
Spine  11.8774 -2.63297 2.53967
Spine1  8.15175 -1.93244 -2.64633
HEad  -17.5471 -0.424332 -2.32175
LeftShoulder1  1.91127 -3.50371 -20.8916
LeftArm  -12.1985 -45.1597 -42.3962
LeftForeArm  -4.65226 -21.6929 -4.92819
LeftHand  -0.0489878 3.77033 2.2526
RightShoulder  0.633461 -1.00363 19.0418
RightArm  2.27669 41.3006 48.7872
RightForeArm  -30.1836 19.4383 5.60635
RightHand  -0.855527 9.11775 -7.23745
LeftUpLeg  -9.32302 0.764232 -2.50588
LeftLeg  7.37184 -10.774 -0.342785
LeftFoot  2.04076 -0.428381 3.54671
LeftToes  -4.59298e-010 2.08438e-011 -1.27151e-011
791
root  -62.2921 40.6494 1.30061 -24.2944 -85.7706 23.3083
RightUpLeg  -8.5501 -6.87489 -4.29928
RightLeg  6.4704 15.6728 0.0246212
RightFoot  2.02901 -0.248451 2.24359
RightToes  4.6566e-010 0 -3.6325e-017
Spine  10.7745 -2.65591 2.32242
Spine1  8.68634 -2.02888 -2.41873
HEad  -16.4375 -1.19058 -1.75523
LeftShoulder1  1.76128 -2.62689 -22.3986
LeftArm  -6.73077 -39.78 -43.2855
LeftForeArm  -3.23191 -22.187 -5.01309
LeftHand  -0.0748959 3.40904 3.10502
RightShoulder  0.436781 -1.90072 21.2201
RightArm  7.54939 35.338 49.0591
RightForeArm  -29.4023 17.6431 6.0178
RightHand  -1.0126 8.34216 -8.87375
LeftUpLeg  -8.21399 1.11447 -2.44149
LeftLeg  8.20562 -10.9536 -0.743539
LeftFoot  1.26384 -0.440466 3.91687
LeftToes  -4.59298e-010 2.08438e-011 -1.27151e-011
